<svg width="24" height="24" viewBox="0 0 24 24" fill="none" xmlns="http://www.w3.org/2000/svg">
<path d="M23.49 12.275C23.49 11.425 23.415 10.6 23.274 9.80005H12V14.467H18.438C18.163 15.967 17.313 17.234 16.038 18.084V21.101H19.934C22.209 19.009 23.49 15.918 23.49 12.275Z" fill="#4285F4"/>
<path d="M12 24C15.238 24 17.954 22.925 19.934 21.108L16.038 18.092C14.963 18.817 13.592 19.242 12 19.242C8.896 19.242 6.267 17.146 5.334 14.329H1.32V17.454C3.308 21.417 7.342 24 12 24Z" fill="#34A853"/>
<path d="M5.334 14.33C5.096 13.604 4.963 12.82 4.963 12C4.963 11.18 5.096 10.396 5.333 9.67002V6.54602H1.32C0.475 8.23802 0 10.05 0 12C0 13.95 0.475 15.762 1.32 17.454L5.334 14.33Z" fill="#FBBC05"/>
<path d="M12 4.75C13.763 4.75 15.346 5.358 16.592 6.55L20.025 3.117C17.95 1.183 15.233 0 12 0C7.342 0 3.308 2.583 1.32 6.546L5.334 9.671C6.267 6.854 8.896 4.75 12 4.75Z" fill="#EA4335"/>
</svg>
